<?xml version="1.0" standalone="no"?>
<!DOCTYPE svg PUBLIC "-//W3C//DTD SVG 20010904//EN"
 "http://www.w3.org/TR/2001/REC-SVG-20010904/DTD/svg10.dtd">
<svg version="1.0" xmlns="http://www.w3.org/2000/svg"
 width="300.000000pt" height="89.000000pt" viewBox="0 0 300.000000 89.000000"
 preserveAspectRatio="xMidYMid meet">
<metadata>
Created by potrace 1.10, written by Peter Selinger 2001-2011
</metadata>
<g transform="translate(0.000000,89.000000) scale(0.050000,-0.050000)"
fill="#ffffff" stroke="none">
<path d="M685 1755 c14 -356 -8 -670 -45 -661 -41 11 -57 66 -19 66 14 0 13
14 -2 41 -12 24 -19 111 -15 205 l6 164 -246 -3 c-136 -1 -251 -8 -258 -14 -6
-6 -28 -3 -47 8 -35 18 -78 -9 -53 -33 24 -24 391 -39 440 -18 21 9 46 6 59
-7 17 -17 16 -23 -3 -23 -15 0 -6 -18 21 -42 26 -22 37 -36 25 -30 -14 7 -23
-8 -23 -38 0 -28 8 -50 18 -50 10 0 3 -23 -15 -50 -18 -28 -28 -67 -23 -87 12
-46 -177 -48 -207 -1 -13 22 -17 22 -18 2 0 -17 -14 -22 -39 -14 -22 7 -68 -4
-105 -23 -36 -19 -79 -34 -96 -32 -18 2 -20 -1 -6 -7 13 -6 19 -23 13 -39 -6
-16 -17 -25 -25 -20 -8 4 -15 -10 -17 -32 -3 -42 86 -135 130 -136 14 -1 25
-17 25 -36 1 -29 4 -30 19 -6 16 25 26 25 68 3 27 -15 59 -21 71 -13 12 7 28
-1 34 -18 8 -20 37 -31 81 -31 41 0 64 -8 57 -20 -7 -11 1 -14 19 -8 22 9 31
0 31 -31 0 -26 -9 -38 -22 -30 -16 10 -16 3 -2 -24 14 -26 14 -50 0 -75 -16
-29 -15 -34 4 -22 17 10 22 6 16 -12 -5 -15 -28 -25 -51 -22 -23 3 -47 -4 -54
-15 -8 -12 -22 -21 -33 -21 -11 0 -14 11 -5 24 8 13 -28 -1 -80 -31 -51 -30
-105 -49 -118 -41 -14 8 -18 7 -10 -2 9 -10 -6 -40 -32 -69 -50 -53 -83 -162
-47 -155 12 2 32 -17 45 -42 13 -26 29 -44 34 -40 6 3 27 -8 48 -26 26 -22 75
-31 167 -30 139 2 215 -32 158 -71 -24 -17 -23 -19 2 -12 21 6 32 40 36 110 4
70 16 105 38 114 45 17 48 9 51 -117 2 -128 34 -109 35 21 0 80 48 136 78 91
23 -33 104 -42 115 -12 6 15 22 28 35 28 29 0 37 -74 10 -91 -10 -6 -14 -20
-7 -30 6 -10 -1 -14 -16 -8 -19 7 -27 -7 -26 -45 2 -91 70 -83 181 21 53 50
160 124 237 166 137 75 393 291 393 332 0 56 -260 -1 -504 -111 -307 -137
-292 -133 -471 -146 -82 -6 -199 -29 -260 -50 -124 -43 -209 -48 -266 -17 -66
35 -43 59 56 59 52 0 145 14 205 30 61 16 169 35 240 41 169 14 580 162 580
208 0 8 11 16 25 17 175 20 255 52 255 102 0 90 195 186 426 210 210 22 249
-7 201 -153 -57 -171 -227 -167 -227 7 0 56 -94 49 -186 -13 -196 -134 275
-244 552 -129 134 56 135 72 8 140 -96 51 -118 92 -62 113 38 15 106 -6 323
-103 91 -40 177 -69 190 -65 33 12 -246 192 -382 247 -123 50 -160 80 -132
107 24 23 222 -63 354 -155 52 -36 95 -57 95 -47 0 33 -185 185 -290 237 -127
64 -170 102 -170 151 0 38 4 37 65 -9 36 -26 115 -78 175 -114 61 -37 135 -89
165 -118 34 -32 55 -41 55 -25 0 15 -54 77 -121 138 -150 138 -228 272 -276
475 l-37 158 -88 4 c-66 4 -78 0 -48 -13 34 -16 35 -18 5 -20 -19 0 -36 -17
-36 -36 -2 -30 -4 -29 -18 5 -9 22 -12 47 -7 55 4 8 -48 15 -118 14 l-126 0
60 -55 c34 -30 88 -77 120 -104 88 -74 170 -178 170 -215 0 -24 -18 -15 -66
31 -36 35 -83 64 -105 64 -30 1 -32 5 -12 18 21 13 6 32 -60 78 -48 33 -113
87 -144 120 -53 56 -473 104 -473 54 0 -5 115 -68 255 -140 520 -264 630 -331
598 -363 -17 -18 -756 351 -893 445 -113 78 -223 94 -206 30 6 -24 34 -43 75
-51 36 -6 82 -30 101 -52 36 -39 35 -39 -187 -37 -231 1 -247 6 -188 50 20 15
25 27 11 27 -14 1 -41 -17 -61 -38 -61 -65 -114 -41 -121 56 -6 74 -61 129
-59 58z m1581 -103 c14 -36 -2 -52 -54 -52 -35 1 -37 4 -12 20 17 11 23 20 14
20 -22 0 3 40 25 40 9 0 22 -13 27 -28z m-1326 -113 c50 -12 171 -67 269 -122
134 -76 213 -107 310 -121 72 -11 176 -36 231 -57 138 -50 250 -79 314 -79
210 0 195 -99 -22 -145 -91 -20 -235 -59 -319 -88 -115 -40 -198 -54 -333 -57
-120 -3 -206 -16 -259 -39 -100 -44 -203 -30 -317 44 -75 49 -103 55 -254 55
-99 0 -188 10 -214 25 -24 14 -90 25 -146 25 -74 0 -101 7 -95 25 13 39 131
41 261 5 81 -23 154 -30 231 -21 76 8 127 4 155 -14 140 -83 183 -100 259 -98
47 1 122 16 167 35 62 25 115 30 212 20 93 -9 153 -4 214 19 160 58 266 85
381 99 135 15 135 39 1 57 -53 8 -163 35 -246 61 -82 26 -204 58 -270 70 -82
15 -171 53 -283 121 -190 117 -427 184 -427 121 0 -11 10 -18 23 -15 27 6 68
-137 87 -306 14 -123 4 -144 -42 -84 -25 32 -27 31 -27 -11 -1 -34 -11 -45
-36 -40 -30 6 -36 35 -41 218 -8 320 9 344 216 297z m117 -257 c-4 -37 6 -44
32 -23 24 20 27 15 19 -32 -10 -55 -9 -56 23 -17 26 32 30 33 22 6 -6 -19 -1
-41 11 -48 13 -9 17 -5 8 9 -16 26 -9 28 37 11 25 -10 27 -19 9 -41 -13 -15
-18 -34 -11 -41 7 -7 13 -2 13 11 0 13 9 23 20 23 11 0 20 -13 20 -30 0 -20
-20 -30 -61 -30 -42 0 -57 -7 -47 -23 10 -16 4 -20 -17 -12 -17 7 -37 7 -43 0
-18 -18 -92 -21 -81 -4 5 8 -5 20 -23 27 -23 9 -28 27 -18 70 7 33 3 64 -9 71
-12 8 -16 1 -9 -18 8 -20 1 -31 -21 -31 -37 0 -27 25 35 92 37 38 93 57 91 30z
m-377 -638 c-1 -133 -7 -185 -20 -164 -16 25 -20 23 -21 -10 -2 -40 -2 -40
-19 0 -26 61 -23 305 4 349 42 67 56 24 56 -175z m118 141 c-7 -41 6 -61 42
-71 22 -6 40 -1 40 10 0 13 12 11 30 -4 19 -16 30 -59 30 -117 0 -51 -7 -84
-15 -73 -40 56 -130 73 -121 23 10 -48 -33 -130 -56 -108 -41 41 -33 355 9
355 24 0 42 -7 41 -15z"/>
<path d="M2367 1751 c6 -16 21 -65 33 -109 61 -229 269 -542 344 -518 51 17
42 136 -19 234 -64 103 -105 240 -105 351 0 97 -80 103 -125 9 -18 -37 -36
-53 -44 -40 -7 12 1 36 18 54 44 44 40 48 -41 48 -55 0 -70 -7 -61 -29z"/>
<path d="M2692 1748 c-21 -55 -12 -176 18 -228 27 -47 29 -44 29 73 1 68 6
138 13 155 8 21 1 32 -18 32 -16 0 -35 -14 -42 -32z"/>
<path d="M2806 1747 c-7 -18 -11 -119 -10 -225 1 -105 2 -268 3 -361 1 -151 7
-178 56 -249 l55 -79 11 148 c6 82 22 169 35 193 13 24 24 109 24 190 0 80 14
190 30 244 50 164 46 172 -81 172 -84 0 -113 -8 -123 -33z m85 -94 c28 11 29
-18 11 -348 -7 -133 -44 -27 -40 115 2 89 -2 167 -9 174 -7 7 -12 45 -10 84 2
59 4 62 11 18 6 -36 18 -50 37 -43z"/>
<path d="M3117 1665 c-64 -111 -95 -268 -68 -339 10 -27 25 -10 67 75 46 93
70 117 163 162 214 104 230 214 31 213 l-130 0 -63 -111z"/>
<path d="M3500 1723 c0 -69 -67 -142 -210 -231 -138 -85 -191 -188 -120 -231
70 -42 62 -68 -9 -32 -93 49 -158 -48 -190 -284 -16 -116 14 -107 76 24 52
109 138 207 233 265 27 16 103 97 167 178 105 133 260 268 308 268 10 0 40 23
66 51 l48 51 -150 -6 c-97 -4 -149 -14 -149 -29 0 -13 -7 -31 -17 -40 -9 -9
-15 -8 -12 3 8 39 -1 70 -21 70 -11 0 -20 -26 -20 -57z"/>
<path d="M4053 1725 c19 -30 37 -58 39 -61 2 -4 42 21 89 55 l85 61 -123 0
-124 0 34 -55z"/>
<path d="M4370 1751 c-33 -14 -139 -85 -235 -158 -195 -147 -255 -182 -349
-202 -59 -13 -201 -143 -180 -164 5 -5 39 9 76 30 38 22 154 64 258 95 187 54
251 83 230 105 -24 24 213 99 352 111 122 11 567 105 596 126 20 14 -65 82
-90 73 -15 -6 -24 -17 -19 -25 4 -7 -8 -13 -28 -13 -20 0 -32 10 -28 23 6 15
-30 22 -120 20 -105 -2 -125 -7 -108 -29 17 -19 15 -31 -6 -44 -25 -16 -25
-19 1 -22 17 -1 -6 -8 -50 -15 -122 -18 -314 -3 -304 25 4 13 22 21 40 17 17
-3 37 5 45 17 24 40 -20 57 -81 30z m442 -42 c-7 -18 13 -29 64 -34 70 -8 70
-8 -16 -12 -82 -3 -90 1 -93 46 -2 34 6 45 26 37 16 -6 25 -23 19 -37z"/>
<path d="M5133 1751 c-11 -28 32 -80 51 -61 21 21 416 35 416 15 0 -46 -62
-61 -290 -70 -189 -7 -274 -21 -400 -63 -109 -37 -223 -58 -357 -66 -158 -10
-208 -20 -250 -54 -131 -104 -187 -132 -312 -153 -83 -15 -197 -57 -303 -112
-94 -48 -212 -94 -263 -101 -68 -9 -112 -31 -164 -81 l-71 -68 80 13 c44 8
130 35 192 61 61 26 153 57 204 70 54 14 95 37 101 56 7 30 9 30 11 1 2 -35
89 -31 135 6 14 11 26 9 30 -4 10 -29 117 9 117 42 0 16 -9 15 -31 -3 -24 -20
-36 -20 -55 -1 -13 14 -15 22 -4 19 32 -9 112 43 99 64 -19 32 4 21 34 -15 15
-19 17 -28 3 -20 -13 8 -30 4 -37 -8 -10 -16 4 -21 48 -14 50 7 58 4 40 -18
-13 -15 -16 -33 -9 -41 8 -8 23 -1 33 16 16 25 18 25 19 -1 1 -27 3 -27 20 0
11 17 20 20 20 8 0 -12 11 -22 25 -22 14 -1 87 -8 162 -15 145 -14 253 -1 253
32 0 11 -8 14 -18 8 -10 -6 -13 9 -6 34 9 34 14 37 19 12 11 -51 51 -57 156
-26 124 38 247 37 383 -3 106 -31 300 -21 406 20 43 17 96 -20 68 -48 -24 -24
-222 -60 -333 -60 -58 0 -75 -8 -75 -35 1 -70 26 -127 51 -117 14 5 37 -3 50
-19 15 -18 16 -29 3 -29 -11 0 -24 8 -27 19 -4 10 -24 5 -46 -10 -31 -23 -33
-29 -7 -29 17 0 37 -14 44 -32 16 -42 15 -48 -8 -48 -11 0 -20 14 -20 30 0 17
-9 30 -20 30 -11 0 -20 -8 -20 -18 0 -10 -14 -23 -31 -30 -25 -9 -30 3 -26 64
2 42 -3 87 -11 101 -10 15 -1 42 20 65 31 34 32 43 8 58 -18 11 -35 9 -44 -6
-12 -17 -20 -18 -31 -2 -51 75 -159 78 -385 8 -71 -22 -156 -40 -187 -40 -52
0 -55 -3 -30 -35 25 -32 24 -33 -9 -6 -41 31 -55 34 -288 53 -108 8 -198 5
-260 -12 -53 -13 -134 -28 -181 -33 -46 -5 -145 -28 -220 -50 -74 -22 -184
-53 -245 -69 -153 -41 -220 -69 -220 -93 0 -31 179 -1 313 54 192 78 342 102
476 75 96 -20 119 -19 144 6 35 35 60 38 77 10 7 -11 -1 -15 -16 -9 -16 6 -34
-3 -41 -20 -10 -27 8 -40 50 -34 7 1 60 -43 118 -98 116 -111 137 -116 269
-59 51 22 115 40 142 40 26 0 49 9 51 20 1 11 3 31 5 43 3 32 45 44 61 18 8
-12 1 -16 -15 -10 -15 6 -27 -2 -27 -17 0 -21 41 -28 171 -31 95 -2 201 -13
237 -25 36 -12 77 -17 90 -13 14 5 35 -4 46 -20 14 -19 65 -31 143 -35 66 -3
133 -13 148 -22 107 -68 215 -157 206 -171 -21 -35 -85 -15 -170 53 -92 72
-187 96 -165 40 6 -17 1 -30 -11 -30 -12 0 -22 14 -22 30 0 29 -55 41 -146 33
-20 -2 -31 5 -25 15 41 66 -525 92 -655 30 -93 -45 -64 -68 82 -65 81 2 104 9
96 30 -15 37 22 34 44 -4 9 -17 30 -34 45 -36 16 -3 50 -17 76 -31 26 -14 64
-21 85 -16 21 6 45 -1 53 -16 8 -14 51 -47 95 -72 44 -25 139 -97 211 -160 72
-63 184 -138 250 -167 65 -28 139 -76 164 -106 l45 -55 0 56 c0 31 14 70 30
87 27 27 26 34 -4 63 -34 35 -39 37 -101 42 -30 2 -31 5 -5 22 29 19 -11 32
-66 22 -10 -2 -11 6 -4 18 7 11 -2 20 -19 20 -17 0 -31 10 -31 22 0 14 19 18
48 10 37 -9 58 2 95 48 26 33 64 60 84 60 29 0 36 11 28 50 -5 28 -2 56 7 61
9 6 11 23 5 40 -6 16 -18 25 -26 20 -21 -13 -75 57 -66 85 5 15 -13 24 -48 25
-48 0 -51 4 -23 20 19 11 29 33 23 49 -6 17 3 35 21 42 27 11 29 18 8 44 -22
27 -21 29 4 16 25 -13 25 -11 -1 12 -17 14 -27 42 -23 61 5 25 -2 31 -25 23
-35 -14 -26 28 23 105 30 46 28 88 -4 112 -12 9 -10 15 5 15 14 0 25 9 25 20
0 11 -19 20 -41 20 -23 0 -36 8 -30 18 6 10 1 22 -12 26 -29 10 -4 56 29 56
15 0 12 -9 -6 -22 -23 -16 -18 -17 20 -7 28 8 60 22 72 32 30 24 119 7 113
-21 -10 -43 31 -21 42 23 37 137 40 135 -254 135 -318 0 -387 11 -417 68 -20
38 -19 39 11 14 21 -17 58 -23 103 -16 53 9 70 4 70 -17 0 -16 10 -29 21 -29
12 0 16 8 10 19 -16 25 28 51 89 52 28 0 48 11 45 25 -3 13 9 24 26 24 18 0
45 14 62 30 16 17 21 30 10 30 -11 0 -36 5 -56 12 -30 10 -31 8 -8 -9 17 -11
25 -26 19 -32 -6 -6 -28 3 -49 19 -34 25 -35 32 -9 49 21 14 -23 20 -151 21
-114 0 -190 -9 -205 -24 -19 -19 -24 -19 -24 0 0 35 -133 31 -147 -5z m16
-344 c-7 -140 -14 -159 -48 -138 -23 15 -29 246 -8 302 29 75 63 -27 56 -164z
m153 146 c5 -90 -8 -307 -21 -330 -39 -70 -77 178 -49 321 11 53 66 60 70 9z
m-646 -175 c-30 -19 2 -63 36 -50 47 18 31 -17 -17 -39 -25 -11 -43 -31 -40
-45 3 -13 -5 -24 -17 -24 -12 0 -17 13 -11 29 6 17 3 35 -8 42 -32 19 -21 106
16 126 39 22 79 -16 41 -39z m-388 -13 c15 -14 23 -17 74 -22 16 -2 15 -12 -2
-33 -17 -21 -18 -30 -2 -30 12 0 22 -9 22 -19 0 -11 -13 -15 -30 -8 -16 6 -30
24 -30 39 0 15 -13 28 -28 28 -15 0 -33 14 -39 30 -12 31 10 41 35 15z m163
-159 c-6 -16 -11 -33 -11 -38 0 -4 -13 -8 -28 -8 -37 0 -51 43 -24 72 29 31
77 10 63 -26z m713 -229 c-12 -81 -55 -60 -51 25 5 106 5 108 33 70 15 -20 23
-63 18 -95z m-874 41 c8 -22 9 -46 3 -52 -18 -18 -53 15 -53 50 -1 29 -3 29
-19 5 -10 -17 -26 -23 -34 -14 -17 16 28 52 67 53 13 0 29 -19 36 -42z m431
-90 c-4 -106 -10 -126 -34 -106 -16 13 -28 13 -37 -2 -9 -15 -21 -16 -39 -1
-13 11 -28 18 -33 16 -5 -3 4 6 19 19 23 20 19 26 -25 37 -52 13 -64 30 -39
55 7 8 26 3 41 -9 15 -12 33 -17 40 -10 7 7 2 13 -11 13 -12 0 -23 8 -23 18 0
10 17 14 38 8 21 -5 44 1 52 14 19 31 52 -3 51 -52z m979 52 c0 -11 14 -20 30
-20 22 0 28 -15 22 -49 -5 -27 0 -52 10 -55 11 -4 6 -24 -10 -46 -29 -39 -30
-39 -19 5 9 35 3 45 -28 45 -24 0 -45 17 -51 40 -6 22 -1 40 10 40 11 0 15 14
9 30 -7 17 -3 30 8 30 10 0 19 -9 19 -20z m-640 -30 c9 5 12 -7 6 -28 -5 -20
0 -44 12 -51 12 -7 22 -6 22 4 0 9 17 18 37 19 59 5 42 -50 -19 -59 -31 -4
-54 -3 -53 4 7 25 -48 101 -66 90 -10 -6 -19 -3 -19 8 0 26 48 42 57 20 3 -10
14 -13 23 -7z m568 -29 c-2 -37 -12 -49 -37 -45 -19 4 -30 -2 -23 -13 7 -11 4
-25 -6 -32 -11 -6 -23 4 -28 24 -7 27 -10 24 -12 -10 -3 -69 -140 -50 -142 20
0 8 10 15 21 15 12 0 16 -9 9 -20 -7 -11 9 -20 37 -20 27 0 54 14 60 30 7 17
32 31 57 31 45 2 45 2 -4 21 -38 16 -43 24 -21 38 53 32 92 15 89 -39z m-1182
28 c18 -7 26 -28 20 -55 -8 -35 -5 -38 11 -14 28 39 74 -3 55 -51 -10 -27 -18
-29 -43 -8 -25 21 -28 19 -18 -13 12 -36 11 -36 -19 1 -18 21 -32 50 -32 65 0
14 -13 26 -30 26 -36 0 -40 33 -5 47 14 5 27 11 28 11 2 1 17 -3 33 -9z m728
-278 c-5 -26 -37 -50 -67 -51 -13 0 -19 17 -13 39 10 39 86 51 80 12z"/>
<path d="M3873 1688 c-20 -28 -70 -66 -110 -84 -106 -49 -212 -146 -337 -307
-31 -40 -98 -103 -149 -140 -81 -58 -177 -181 -177 -227 0 -8 40 30 89 84 49
55 132 121 185 148 53 26 151 100 219 163 68 63 141 115 161 115 40 0 273 143
297 182 18 28 -28 58 -67 43 -23 -9 -24 -3 -8 28 33 62 -57 57 -103 -5z"/>
<path d="M3912 774 c-28 -141 -220 -144 -240 -4 -10 67 -233 43 -232 -26 3
-150 551 -192 682 -52 54 58 47 67 -91 109 l-107 33 -12 -60z"/>
<path d="M3107 746 c7 -12 39 -26 71 -33 32 -6 134 -69 227 -139 225 -173 239
-179 440 -195 113 -10 203 -29 253 -56 43 -22 81 -39 85 -37 4 2 5 0 2 -4 -16
-28 98 -172 174 -220 86 -54 104 -57 330 -59 l239 -3 -109 99 c-122 110 -240
173 -290 153 -26 -10 -28 -19 -10 -41 19 -23 15 -26 -21 -16 -38 10 -43 5 -33
-32 6 -24 4 -47 -5 -53 -25 -15 -38 64 -14 88 12 12 15 22 6 22 -9 0 -7 12 6
27 29 36 14 48 -188 153 -88 46 -169 90 -180 100 -11 9 -69 12 -130 6 -285
-26 -367 -7 -607 142 -140 87 -272 140 -246 98z"/>
<path d="M3020 709 c0 -24 219 -223 233 -211 7 6 8 2 1 -10 -7 -12 15 -48 49
-80 57 -53 61 -54 48 -13 -8 27 -5 45 8 45 11 0 21 -26 21 -58 0 -31 13 -68
30 -82 16 -14 43 -68 58 -121 53 -178 55 -179 223 -179 82 0 149 3 149 7 0 26
-107 193 -123 193 -11 0 -15 8 -9 17 19 30 -46 99 -183 193 -74 51 -206 141
-293 201 -142 98 -212 130 -212 98z m620 -477 c-2 -10 9 -25 23 -34 21 -13 19
-22 -11 -44 -21 -15 -32 -38 -25 -50 23 -36 -25 -49 -59 -15 -17 17 -26 32
-19 34 6 1 19 3 29 5 38 5 50 35 21 53 -23 14 -23 18 -2 19 17 0 23 12 15 32
-7 18 -3 28 9 24 12 -4 21 -15 19 -24z"/>
<path d="M2645 684 c-25 -4 -91 -38 -147 -76 -57 -37 -126 -73 -155 -79 -29
-6 -91 -21 -137 -32 -61 -16 -129 -15 -253 4 l-170 25 -136 -123 c-75 -68
-195 -154 -267 -192 -71 -37 -161 -100 -199 -140 l-69 -71 191 0 191 0 183
100 c101 54 301 153 444 220 143 66 330 168 415 226 184 126 206 154 109 138z"/>
<path d="M2829 628 c-34 -32 -98 -107 -142 -168 -45 -60 -119 -141 -165 -180
-46 -38 -135 -117 -198 -176 l-114 -105 123 8 c72 4 142 22 170 41 l47 34 -60
-11 -60 -11 60 22 c264 96 433 325 406 551 l-6 53 -61 -58z"/>
<path d="M2980 616 c0 -15 8 -37 17 -47 38 -44 101 -228 112 -329 7 -61 22
-139 33 -175 l21 -65 157 0 157 0 -21 75 c-33 120 -68 174 -198 306 -195 196
-278 267 -278 235z"/>
<path d="M4175 608 c-93 -40 -94 -55 -5 -83 62 -19 126 0 66 20 -14 4 -10 13
12 22 30 11 35 6 26 -27 -8 -31 5 -48 53 -73 35 -17 83 -50 107 -71 25 -23 53
-34 68 -25 14 9 19 7 11 -6 -7 -12 14 -26 52 -33 36 -7 105 -39 154 -71 48
-32 97 -53 108 -47 10 7 13 3 6 -8 -15 -26 174 -206 216 -206 26 0 31 30 31
170 0 94 8 170 18 170 30 0 54 -103 53 -225 -1 -97 5 -115 34 -115 29 0 35 19
35 120 0 66 8 120 18 120 24 0 42 -51 42 -121 0 -43 8 -55 30 -46 21 8 30 -1
30 -29 0 -38 13 -40 214 -42 244 -3 248 9 34 96 -86 35 -172 90 -229 144 -172
167 -346 269 -430 253 -26 -5 -44 -3 -39 6 10 15 -83 33 -271 51 -59 6 -117
18 -129 28 -21 17 -89 36 -190 52 -27 4 -84 -7 -125 -24z m424 -132 c23 -24
41 -49 41 -55 -1 -25 -32 -51 -66 -54 -20 -2 -32 2 -26 7 5 6 -3 24 -19 40
-16 16 -24 37 -18 48 16 25 49 23 49 -3 0 -12 -10 -15 -23 -7 -15 9 -18 5 -9
-9 8 -13 22 -19 32 -13 9 6 21 -1 26 -15 4 -14 14 -20 21 -13 8 6 -9 36 -36
65 -27 29 -41 53 -31 53 10 0 37 -20 59 -44z m390 -78 c-6 -10 9 -19 35 -21
l46 -2 -45 -9 c-25 -5 -45 -16 -45 -24 0 -38 -77 -104 -92 -79 -8 13 -5 28 7
32 13 4 18 21 12 36 -6 16 -1 29 11 29 12 0 22 10 22 21 0 12 -9 16 -20 9 -11
-7 -30 -6 -42 1 -16 10 -16 18 1 28 31 20 124 1 110 -21z"/>
<path d="M2657 565 c-15 -34 -168 -132 -322 -208 -196 -96 -375 -262 -375
-347 0 -68 174 1 277 110 62 66 125 120 139 120 31 0 82 50 222 215 58 69 97
125 86 125 -12 0 -24 -7 -27 -15z"/>
<path d="M2933 485 c-4 -8 -15 -64 -22 -125 -8 -60 -18 -123 -22 -140 -14 -50
22 -83 101 -94 63 -8 74 -5 64 22 -7 17 -19 79 -26 137 -17 136 -68 244 -95
200z"/>
<path d="M3802 185 c87 -193 73 -185 319 -185 l215 0 -112 108 c-95 91 -116
103 -139 80 -36 -36 -58 -35 -58 2 0 17 14 30 31 30 111 0 -68 90 -187 94
l-129 4 60 -133z"/>
<path d="M2760 183 c-17 -18 -71 -67 -120 -108 l-90 -76 129 6 c129 5 130 5
143 70 7 36 6 70 -4 76 -9 6 -11 23 -5 40 15 38 -15 34 -53 -8z"/>
<path d="M1879 142 c-39 -18 -92 -52 -119 -77 -27 -26 -59 -42 -71 -37 -12 4
-34 1 -47 -7 -14 -8 32 -17 103 -19 l127 -3 46 82 c55 98 52 103 -39 61z"/>
<path d="M5914 147 c-40 -40 -14 -147 37 -147 45 0 50 7 46 69 -3 37 -13 63
-23 57 -10 -6 -25 -1 -33 12 -7 12 -20 16 -27 9z"/>
<path d="M2908 74 c6 -24 12 -51 12 -59 0 -21 180 -19 180 3 0 9 -13 28 -30
42 -16 14 -30 18 -30 10 0 -8 -11 -6 -25 5 -59 45 -120 45 -107 -1z"/>
</g>
</svg>
